<?xml version="1.0" encoding="utf-8"?> <svg viewBox="191.24 17.953 631.148 967.54" xmlns="http://www.w3.org/2000/svg"> <defs> <style> .cls-1 { fill: none; } .cls-1, .cls-2, .cls-4, .cls-5 { stroke: #4c2b20; } .cls-1, .cls-2 { stroke-width: 25px; } .cls-1, .cls-2, .cls-3, .cls-4, .cls-5 { fill-rule: evenodd; } .cls-2, .cls-5 { fill: #4c2b20; } .cls-2 { stroke-linejoin: bevel; } .cls-3 { fill: #2e1a13; } .cls-4 { fill: #ebebe6; } .cls-4, .cls-5 { stroke-width: 10.14px; } </style> </defs> <path id="Line_3" data-name="Line 3" class="cls-1" d="M 506.812 17.953 L 508.171 17.953 L 508.171 757.611 L 506.812 757.611 L 506.812 17.953 Z" style=""/> <path id="Line_2" data-name="Line 2" class="cls-2" d="M 340.211 829.666 L 340.211 828.305 L 685.684 828.305 L 681.467 829.666 L 340.211 829.666 Z" style=""/> <path id="Line_1" data-name="Line 1" class="cls-2" d="M 294.019 985.493 L 293.353 984.771 L 482.847 166.442 L 484.455 169.284 L 294.019 985.493 Z" style=""/> <path id="Line_1-2" data-name="Line 1" class="cls-2" d="M 717.991 983.368 L 718.654 982.647 L 529.737 164.31 L 528.133 167.154 L 717.991 983.368 Z" style=""/> <path class="cls-3" d="M 397.504 745.268 L 623.398 745.268 L 623.398 746.845 C 623.398 762.626 610.605 775.419 594.824 775.419 L 424.718 775.419 C 409.688 775.419 397.504 763.236 397.504 748.206 L 397.504 745.268 Z" style=""/> <path class="cls-3" d="M 421.549 79.357 L 593.431 79.357 C 608.462 79.357 620.647 91.543 620.647 106.572 L 620.647 109.254 L 394.335 109.254 L 394.335 106.572 C 394.335 91.543 406.518 79.357 421.549 79.357 Z" style=""/> <path class="cls-4" d="M 191.24 113.924 L 822.388 113.924 L 822.388 743.297 L 191.24 743.297 L 191.24 113.924 Z" style=""/> <path class="cls-5" d="M 404.876 246.722 L 437.437 246.722 L 437.437 492.072 L 404.876 492.072 L 404.876 246.722 Z" style=""/> <path class="cls-5" d="M 660.312 245.964 L 693.173 245.964 L 693.173 490.949 L 660.312 490.949 L 660.312 245.964 Z" style=""/> </svg>